<svg xmlns="http://www.w3.org/2000/svg" xmlns:xlink="http://www.w3.org/1999/xlink" version="1.1" data-diagram-type="STATE" style="width:733px;height:904px;background:#FFFFFF;" width="733px" height="904px" viewBox="0 0 733 904" zoomAndPan="magnify" preserveAspectRatio="none" contentStyleType="text/css"><?plantuml 1.2026.8?><defs/><g font-family="sans-serif" lengthAdjust="spacing"><g class="title" data-source-line="1"><text x="154.253" y="22.995" fill="#000" font-size="14" textLength="418.079" font-weight="700">Diagram 5 — Siklus Tiket &amp; SLA (satu state machine)</text></g><g class="entity" data-qualified-name="IN" id="ent0001" data-source-line="6"><rect x="293.86" y="184.227" width="92.029" height="50" fill="#F1F1F1" style="stroke:#181818;stroke-width:0.5;" rx="12.5" ry="12.5"/><line x1="293.86" y1="208.196" x2="385.889" y2="208.196" style="stroke:#181818;stroke-width:0.5;"/><text x="303.86" y="200.366" fill="#000" font-size="12" textLength="72.029">Tiket Masuk</text></g><g class="entity" data-qualified-name="ASG" id="ent0002" data-source-line="7"><rect x="295.86" y="309.227" width="88.016" height="50" fill="#F1F1F1" style="stroke:#181818;stroke-width:0.5;" rx="12.5" ry="12.5"/><line x1="295.86" y1="333.196" x2="383.876" y2="333.196" style="stroke:#181818;stroke-width:0.5;"/><text x="305.86" y="325.366" fill="#000" font-size="12" textLength="68.016">Ditugaskan</text></g><g class="entity" data-qualified-name="PROG" id="ent0003" data-source-line="8"><rect x="271.12" y="456.137" width="137.504" height="50" fill="#F1F1F1" style="stroke:#181818;stroke-width:0.5;" rx="12.5" ry="12.5"/><line x1="271.12" y1="480.106" x2="408.624" y2="480.106" style="stroke:#181818;stroke-width:0.5;"/><text x="281.12" y="472.276" fill="#000" font-size="12" textLength="117.504">Dalam Penanganan</text></g><g class="entity" data-qualified-name="ESC" id="ent0004" data-source-line="9"><rect x="134.22" y="603.047" width="117.307" height="50" fill="#F1F1F1" style="stroke:#181818;stroke-width:0.5;" rx="12.5" ry="12.5"/><line x1="134.22" y1="640.984" x2="251.527" y2="640.984" style="stroke:#181818;stroke-width:0.5;"/><text x="144.22" y="619.186" fill="#000" font-size="12" textLength="60.785">Dieskalasi</text><text x="144.22" y="633.154" fill="#000" font-size="12" textLength="97.307">(ke tim internal)</text></g><g class="entity" data-qualified-name="DONE" id="ent0005" data-source-line="10"><rect x="454.54" y="603.047" width="62.656" height="50" fill="#F1F1F1" style="stroke:#181818;stroke-width:0.5;" rx="12.5" ry="12.5"/><line x1="454.54" y1="627.016" x2="517.196" y2="627.016" style="stroke:#181818;stroke-width:0.5;"/><text x="464.54" y="619.186" fill="#000" font-size="12" textLength="42.656">Selesai</text></g><g class="entity" data-qualified-name="CLOSED" id="ent0006" data-source-line="11"><rect x="453.46" y="742.967" width="64.813" height="50" fill="#F1F1F1" style="stroke:#181818;stroke-width:0.5;" rx="12.5" ry="12.5"/><line x1="453.46" y1="766.936" x2="518.273" y2="766.936" style="stroke:#181818;stroke-width:0.5;"/><text x="463.46" y="759.106" fill="#000" font-size="12" textLength="44.813">Ditutup</text></g><g class="start_entity" data-qualified-name=".start." id="ent0007" data-source-line="13"><ellipse cx="246.87" cy="62.267" rx="10" ry="10" fill="#222" style="stroke:#222;stroke-width:1;"/></g><g class="end_entity" data-qualified-name=".end." id="ent0016" data-source-line="22"><ellipse cx="485.87" cy="879.887" rx="11" ry="11" fill="none" style="stroke:#222;stroke-width:1;"/><ellipse cx="485.87" cy="879.887" rx="6" ry="6" fill="#222" style="stroke:#222;stroke-width:1;"/></g><g class="entity" data-qualified-name="GMN18" id="ent0019" data-source-line="25"><path d="M443.16,434.227 L443.16,477.137 L409.06,481.137 L443.16,485.137 L443.16,528.039 A0,0 0 0 0 443.16,528.039 L718.586,528.039 A0,0 0 0 0 718.586,528.039 L718.586,444.227 L708.586,434.227 L443.16,434.227 A0,0 0 0 0 443.16,434.227" style="stroke:#181818;stroke-width:0.5;" fill="#FEFFDD"/><path d="M708.586,434.227 L708.586,444.227 L718.586,444.227 L708.586,434.227" style="stroke:#181818;stroke-width:0.5;" fill="#FEFFDD"/><text x="449.16" y="450.366" fill="#000" font-size="12" textLength="214.887">SLA dihitung terhadap target waktu</text><text x="449.16" y="464.334" fill="#000" font-size="12" textLength="159.99">PER PRIORITAS (DEC-025).</text><text x="449.16" y="478.303" fill="#000" font-size="12" textLength="214.805">Pelanggaran SLA ditandai otomatis.</text><text x="449.16" y="492.272" fill="#000" font-size="12"> </text><text x="449.16" y="506.241" fill="#000" font-size="12" textLength="206.625">Komentar dan riwayat pergerakan</text><text x="449.16" y="520.209" fill="#000" font-size="12" textLength="254.426">terekam pada tiket yang sama (DEC-028).</text></g><g class="entity" data-qualified-name="GMN21" id="ent0022" data-source-line="34"><path d="M61.33,728.047 L61.33,807.891 A0,0 0 0 0 61.33,807.891 L324.404,807.891 A0,0 0 0 0 324.404,807.891 L324.404,738.047 L314.404,728.047 L196.87,728.047 L192.87,653.387 L188.87,728.047 L61.33,728.047 A0,0 0 0 0 61.33,728.047" style="stroke:#181818;stroke-width:0.5;" fill="#FEFFDD"/><path d="M314.404,728.047 L314.404,738.047 L324.404,738.047 L314.404,728.047" style="stroke:#181818;stroke-width:0.5;" fill="#FEFFDD"/><text x="67.33" y="744.186" fill="#000" font-size="12" textLength="216.879">Eskalasi adalah ATRIBUT pada tiket,</text><text x="67.33" y="758.154" fill="#000" font-size="12" textLength="222.17">bukan jenis tiket terpisah (DEC-019).</text><text x="67.33" y="772.123" fill="#000" font-size="12"> </text><text x="67.33" y="786.092" fill="#000" font-size="12" textLength="242.074">Satu state machine untuk kedua jalur —</text><text x="67.33" y="800.061" fill="#000" font-size="12" textLength="220.154">tidak dibedakan per jalur (DEC-026).</text></g><g class="entity" data-qualified-name="GMN24" id="ent0025" data-source-line="42"><path d="M306.81,43.297 L306.81,81.234 L558.939,81.234 L558.939,53.297 L548.939,43.297 L306.81,43.297" style="stroke:#181818;stroke-width:0.5;" fill="#FEFFDD"/><path d="M548.939,43.297 L548.939,53.297 L558.939,53.297 L548.939,43.297" style="stroke:#181818;stroke-width:1;" fill="#FEFFDD"/><text x="312.81" y="59.436" fill="#000" font-size="12" textLength="222.557">Daftar status final adalah usulan dan</text><text x="312.81" y="73.404" fill="#000" font-size="12" textLength="231.129">perlu difinalkan pada workshop hari 1.</text></g><!--link *start* to IN--><g class="link" data-entity-1="ent0007" data-entity-2="ent0001" id="lnk8" data-source-line="13" data-link-type="dependency"><path d="M243.7,72.027 C238.1,89.167 228.39,127.767 243.87,154.227 C254.73,172.797 270.022,183.445 288.862,191.825" style="stroke:#181818;stroke-width:1;" fill="none" id="*start*-to-IN"/><polygon points="293.43,193.857,286.832,186.544,288.862,191.825,283.581,193.854,293.43,193.857" fill="#181818" style="stroke:#181818;stroke-width:1;stroke-linejoin:miter;stroke-miterlimit:10;"/><text x="259.123" y="123.366" fill="#000" font-size="12" textLength="132.563">eksternal (pelanggan)</text><text x="244.87" y="137.334" fill="#000" font-size="12" textLength="161.068">internal (karyawan tenant)</text><text x="272.107" y="151.303" fill="#000" font-size="12" textLength="106.594">webhook inbound</text></g><!--link IN to ASG--><g class="link" data-entity-1="ent0001" data-entity-2="ent0002" id="lnk9" data-source-line="15" data-link-type="dependency"><path d="M339.87,234.527 C339.87,256.097 339.87,282.437 339.87,303.977" style="stroke:#181818;stroke-width:1;" fill="none" id="IN-to-ASG"/><polygon points="339.87,308.977,343.87,299.977,339.87,303.977,335.87,299.977,339.87,308.977" fill="#181818" style="stroke:#181818;stroke-width:1;stroke-linejoin:miter;stroke-miterlimit:10;"/><text x="340.87" y="276.366" fill="#000" font-size="12" textLength="104.871">penugasan agent</text></g><!--link ASG to PROG--><g class="link" data-entity-1="ent0002" data-entity-2="ent0003" id="lnk10" data-source-line="16" data-link-type="dependency"><path d="M339.87,359.487 C339.87,386.237 339.87,424.027 339.87,450.807" style="stroke:#181818;stroke-width:1;" fill="none" id="ASG-to-PROG"/><polygon points="339.87,455.807,343.87,446.807,339.87,450.807,335.87,446.807,339.87,455.807" fill="#181818" style="stroke:#181818;stroke-width:1;stroke-linejoin:miter;stroke-miterlimit:10;"/><text x="340.87" y="401.366" fill="#000" font-size="12" textLength="123.182">penanganan dimulai</text></g><!--link PROG to ESC--><g class="link" data-entity-1="ent0003" data-entity-2="ent0004" id="lnk11" data-source-line="17" data-link-type="dependency"><path d="M270.7,489.607 C190.15,499.897 64.46,521.437 35.87,558.047 C6,596.287 72.866,613.129 128.986,620.809" style="stroke:#181818;stroke-width:1;" fill="none" id="PROG-to-ESC"/><polygon points="133.94,621.487,125.565,616.304,128.986,620.809,124.481,624.23,133.94,621.487" fill="#181818" style="stroke:#181818;stroke-width:1;stroke-linejoin:miter;stroke-miterlimit:10;"/><text x="36.87" y="570.186" fill="#000" font-size="12" textLength="173.959">melewati kewenangan agent</text></g><!--link ESC to PROG--><g class="link" data-entity-1="ent0004" data-entity-2="ent0003" id="lnk12" data-source-line="18" data-link-type="dependency"><path d="M217.55,602.707 C244.72,575.927 284.569,536.647 311.709,509.897" style="stroke:#181818;stroke-width:1;" fill="none" id="ESC-to-PROG"/><polygon points="315.27,506.387,306.052,509.856,311.709,509.897,311.668,515.553,315.27,506.387" fill="#181818" style="stroke:#181818;stroke-width:1;stroke-linejoin:miter;stroke-miterlimit:10;"/><text x="262.96" y="570.186" fill="#000" font-size="12" textLength="130.137">ditangani tim internal</text></g><!--link PROG to DONE--><g class="link" data-entity-1="ent0003" data-entity-2="ent0005" id="lnk13" data-source-line="19" data-link-type="dependency"><path d="M360.6,506.427 C376.95,525.177 400.62,551.477 422.87,573.047 C433.32,583.167 441.513,590.478 452.223,599.538" style="stroke:#181818;stroke-width:1;" fill="none" id="PROG-to-DONE"/><polygon points="456.04,602.767,451.752,593.9,452.223,599.538,446.585,600.008,456.04,602.767" fill="#181818" style="stroke:#181818;stroke-width:1;stroke-linejoin:miter;stroke-miterlimit:10;"/><text x="423.87" y="570.186" fill="#000" font-size="12" textLength="105.018">pekerjaan selesai</text></g><!--link DONE to PROG--><g class="link" data-entity-1="ent0005" data-entity-2="ent0003" id="lnk15" data-source-line="21" data-link-type="dependency"><path d="M517.65,604.327 C532.79,590.707 545.35,573.147 533.87,558.047 C503.72,518.387 472.12,546.547 425.87,528.047 C410.79,522.007 399.31,516.44 385.37,508.84" style="stroke:#181818;stroke-width:1;" fill="none" id="DONE-to-PROG"/><polygon points="380.98,506.447,386.967,514.267,385.37,508.84,390.797,507.243,380.98,506.447" fill="#181818" style="stroke:#181818;stroke-width:1;stroke-linejoin:miter;stroke-miterlimit:10;"/><text x="539.33" y="570.186" fill="#000" font-size="12" textLength="91.951">dibuka kembali</text></g><!--link DONE to CLOSED--><g class="link" data-entity-1="ent0005" data-entity-2="ent0006" id="lnk14" data-source-line="20" data-link-type="dependency"><path d="M485.87,653.387 C485.87,678.597 485.87,712.747 485.87,737.867" style="stroke:#181818;stroke-width:1;" fill="none" id="DONE-to-CLOSED"/><polygon points="485.87,742.867,489.87,733.867,485.87,737.867,481.87,733.867,485.87,742.867" fill="#181818" style="stroke:#181818;stroke-width:1;stroke-linejoin:miter;stroke-miterlimit:10;"/><text x="486.87" y="695.186" fill="#000" font-size="12" textLength="211.975">penutupan + catatan penyelesaian</text></g><!--link CLOSED to *end*--><g class="link" data-entity-1="ent0006" data-entity-2="ent0016" id="lnk17" data-source-line="22" data-link-type="dependency"><path d="M485.87,793.357 C485.87,816.887 485.87,846.377 485.87,863.477" style="stroke:#181818;stroke-width:1;" fill="none" id="CLOSED-to-*end*"/><polygon points="485.87,868.477,489.87,859.477,485.87,863.477,481.87,859.477,485.87,868.477" fill="#181818" style="stroke:#181818;stroke-width:1;stroke-linejoin:miter;stroke-miterlimit:10;"/></g><!--link GMN24 to IN--><g class="link" data-entity-1="ent0025" data-entity-2="ent0001" id="lnk26" data-source-line="42" data-link-type="association"><path d="M432.04,81.417 C430.38,100.867 425.45,131.927 410.87,154.227 C403.33,165.767 392.45,175.807 381.47,183.997" style="stroke:#181818;stroke-width:1;stroke-dasharray:7,7;" fill="none" id="GMN24-IN"/></g><?plantuml-src PLJDRjD04BxxAKOze0HeHIiL0GUaq0GKKPee3YVAOL9lukdQQykxAokSU0YUa2VX6zjfWdgBThxz_dQS8A4mD1NUDLpIDVtz_OTIiKNqj1Ph0hsWz7P28yyXaWyS39Nya8ipuoJnLbpDUj7dd5Mjk1rjkV3cP9APBSSYVAvSIEMNeSihtEjupdg1R-oZFIFsDByxJAOIuewzPTSD9kcNfmaN85qQnsx7RfWlLuiZG0pk5UpbtesieI0bYGkcSLoCE_GilJc0KrCOpz8TJnTtirFz4Elk_EPsaSwcIVBZvKywF_y8b_I1ZFKz9OrgKy0Bp8pltK68HfQRFRViAAZLW5bhDdbLMPZPLD5bIG8YvKCu4DR6QM9Su9rn8T5JdMgqVZm4fapAMB0atKGXo0D4YIWj1o5hsW4yKEdyX2gJq4tblsgETDf3fsXDyyXWyNr9IJTGHD_8O1er0VEA7XZLuHVEzlq5TiShJzgRQ1aMomqNaWn42a2xIU8gbD_8BWzKRVjNfMxzCidn8jWkcCMcSKs1cnsMfsKR8a3BsGhu-M8rNqzI6ardD-Tlhgx75peQtgU1kPuBDZCMga9LeZ1_aG3rjIhH5JUK0TP8otiEo0AHXh66G43QMEnU3NrKfwkx1p5vBlcW-0wAncMaGOOucof0H_FetX7DXkqaq1ISqsIzcd_wlZwXVGsKrkJeqJZnWnRaQ_6uq4jTlXztljDdtoL55w95nrbaUkGYDlfHQm39sEeJc4mZQRfXFhX_-znzg6grZY-JQCfRBKZ5yE-m5Ttp8KJqM4cdtG47tY92fqDqGXgjhHhhSz3bt0XT7fN-0G00?></g></svg>